<svg width="24" height="25" viewBox="0 0 24 25" fill="none" xmlns="http://www.w3.org/2000/svg">
<path d="M18.4655 5.28259C18.4655 5.28259 20.1307 4.63274 19.9918 6.20935C19.9695 6.52507 19.8604 7.22345 19.7164 8.14001C19.5638 9.11053 19.372 10.3254 19.2057 11.5892L18.0963 18.8705C18.0963 18.8705 18.0032 19.9376 17.1705 20.1234C16.3379 20.3085 15.0891 19.4738 14.858 19.2884C14.8195 19.2596 14.6493 19.1478 14.3932 18.9799C13.4079 18.3333 11.1501 16.851 10.2321 16.0414C9.90857 15.763 9.53944 15.207 10.2789 14.558L15.1354 9.92028C15.6905 9.36373 16.2458 8.06527 13.9332 9.64196L7.45764 14.0472C7.45764 14.0472 6.71745 14.5117 5.32971 14.0941L2.32288 13.1664C2.30531 13.1552 1.22887 12.4647 3.10999 11.7748C6.60728 10.1264 10.7129 8.45145 14.6871 6.83044C15.9685 6.30784 17.2363 5.79152 18.4655 5.28259Z" fill="white"/>
</svg>
