<svg width="24" height="25" viewBox="0 0 24 25" fill="none" xmlns="http://www.w3.org/2000/svg">
<path d="M12 2.1499C14.717 2.1499 15.056 2.1599 16.122 2.2099C17.187 2.2599 17.912 2.4269 18.55 2.6749C19.21 2.9289 19.766 3.2729 20.322 3.8279C20.8305 4.3278 21.224 4.93249 21.475 5.5999C21.722 6.2369 21.89 6.9629 21.94 8.0279C21.987 9.0939 22 9.4329 22 12.1499C22 14.8669 21.99 15.2059 21.94 16.2719C21.89 17.3369 21.722 18.0619 21.475 18.6999C21.2247 19.3677 20.8311 19.9725 20.322 20.4719C19.822 20.9802 19.2173 21.3737 18.55 21.6249C17.913 21.8719 17.187 22.0399 16.122 22.0899C15.056 22.1369 14.717 22.1499 12 22.1499C9.283 22.1499 8.944 22.1399 7.878 22.0899C6.813 22.0399 6.088 21.8719 5.45 21.6249C4.78233 21.3744 4.17753 20.9808 3.678 20.4719C3.16941 19.9721 2.77593 19.3674 2.525 18.6999C2.277 18.0629 2.11 17.3369 2.06 16.2719C2.013 15.2059 2 14.8669 2 12.1499C2 9.4329 2.01 9.0939 2.06 8.0279C2.11 6.9619 2.277 6.2379 2.525 5.5999C2.77524 4.93208 3.1688 4.32722 3.678 3.8279C4.17767 3.31913 4.78243 2.92563 5.45 2.6749C6.088 2.4269 6.812 2.2599 7.878 2.2099C8.944 2.1629 9.283 2.1499 12 2.1499ZM12 7.1499C10.6739 7.1499 9.40215 7.67669 8.46447 8.61437C7.52678 9.55205 7 10.8238 7 12.1499C7 13.476 7.52678 14.7478 8.46447 15.6854C9.40215 16.6231 10.6739 17.1499 12 17.1499C13.3261 17.1499 14.5979 16.6231 15.5355 15.6854C16.4732 14.7478 17 13.476 17 12.1499C17 10.8238 16.4732 9.55205 15.5355 8.61437C14.5979 7.67669 13.3261 7.1499 12 7.1499ZM18.5 6.8999C18.5 6.56838 18.3683 6.25044 18.1339 6.01602C17.8995 5.7816 17.5815 5.6499 17.25 5.6499C16.9185 5.6499 16.6005 5.7816 16.3661 6.01602C16.1317 6.25044 16 6.56838 16 6.8999C16 7.23142 16.1317 7.54937 16.3661 7.78379C16.6005 8.01821 16.9185 8.1499 17.25 8.1499C17.5815 8.1499 17.8995 8.01821 18.1339 7.78379C18.3683 7.54937 18.5 7.23142 18.5 6.8999ZM12 9.1499C12.7956 9.1499 13.5587 9.46597 14.1213 10.0286C14.6839 10.5912 15 11.3543 15 12.1499C15 12.9456 14.6839 13.7086 14.1213 14.2712C13.5587 14.8338 12.7956 15.1499 12 15.1499C11.2044 15.1499 10.4413 14.8338 9.87868 14.2712C9.31607 13.7086 9 12.9456 9 12.1499C9 11.3543 9.31607 10.5912 9.87868 10.0286C10.4413 9.46597 11.2044 9.1499 12 9.1499Z" fill="white"/>
</svg>
