<svg width="24" height="25" viewBox="0 0 24 25" fill="none" xmlns="http://www.w3.org/2000/svg">
<path d="M18.4654 5.76159C18.4654 5.76159 20.1306 5.11174 19.9918 6.68835C19.9694 7.00407 19.8604 7.70246 19.7164 8.61901C19.5637 9.58953 19.3719 10.8044 19.2056 12.0682L18.0963 19.3495C18.0963 19.3495 18.0032 20.4167 17.1705 20.6024C16.3378 20.7875 15.0891 19.9528 14.858 19.7675C14.8194 19.7386 14.6493 19.6268 14.3931 19.4589C13.4078 18.8123 11.15 17.33 10.232 16.5204C9.9085 16.242 9.53938 15.686 10.2789 15.037L15.1353 10.3993C15.6904 9.84274 16.2457 8.54427 13.9332 10.121L7.45758 14.5262C7.45758 14.5262 6.71739 14.9907 5.32965 14.5731L2.32282 13.6454C2.30525 13.6343 1.2288 12.9437 3.10993 12.2538C6.60722 10.6054 10.7129 8.93045 14.6871 7.30944C15.9684 6.78684 17.2363 6.27052 18.4654 5.76159Z" fill="white"/>
</svg>
