<svg width="69" height="13" viewBox="0 0 69 13" fill="none" xmlns="http://www.w3.org/2000/svg">
<path d="M5.97893 1.72846C6.21438 1.3619 6.75015 1.3619 6.9856 1.72846L8.39571 3.92386C8.47672 4.04998 8.60212 4.14109 8.74711 4.17916L11.2708 4.84184C11.6922 4.95249 11.8577 5.46204 11.5819 5.79924L9.92968 7.81875C9.83476 7.93476 9.78686 8.08219 9.79546 8.23184L9.94507 10.8368C9.97006 11.2717 9.53661 11.5867 9.13067 11.4285L6.69944 10.4812C6.55977 10.4268 6.40476 10.4268 6.26509 10.4812L3.83386 11.4285C3.42792 11.5867 2.99447 11.2717 3.01946 10.8368L3.16907 8.23184C3.17767 8.08219 3.12977 7.93476 3.03485 7.81875L1.38265 5.79924C1.10679 5.46204 1.27235 4.95249 1.69373 4.84184L4.21742 4.17916C4.36241 4.14109 4.48781 4.04998 4.56882 3.92386L5.97893 1.72846Z" fill="#FFCC40"/>
<path d="M19.7378 1.72846C19.9733 1.3619 20.5091 1.3619 20.7445 1.72846L22.1546 3.92386C22.2356 4.04998 22.361 4.14109 22.506 4.17916L25.0297 4.84184C25.4511 4.95249 25.6167 5.46204 25.3408 5.79924L23.6886 7.81875C23.5937 7.93476 23.5458 8.08219 23.5544 8.23184L23.704 10.8368C23.729 11.2717 23.2955 11.5867 22.8896 11.4285L20.4584 10.4812C20.3187 10.4268 20.1637 10.4268 20.024 10.4812L17.5928 11.4285C17.1868 11.5867 16.7534 11.2717 16.7784 10.8368L16.928 8.23184C16.9366 8.08219 16.8887 7.93476 16.7938 7.81875L15.1416 5.79924C14.8657 5.46204 15.0313 4.95249 15.4526 4.84184L17.9763 4.17916C18.1213 4.14109 18.2467 4.04998 18.3277 3.92386L19.7378 1.72846Z" fill="#FFCC40"/>
<path d="M33.4968 1.72846C33.7322 1.3619 34.268 1.3619 34.5034 1.72846L35.9135 3.92386C35.9945 4.04998 36.1199 4.14109 36.2649 4.17916L38.7886 4.84184C39.21 4.95249 39.3756 5.46204 39.0997 5.79924L37.4475 7.81875C37.3526 7.93476 37.3047 8.08219 37.3133 8.23184L37.4629 10.8368C37.4879 11.2717 37.0544 11.5867 36.6485 11.4285L34.2173 10.4812C34.0776 10.4268 33.9226 10.4268 33.7829 10.4812L31.3517 11.4285C30.9457 11.5867 30.5123 11.2717 30.5373 10.8368L30.6869 8.23184C30.6955 8.08219 30.6476 7.93476 30.5527 7.81875L28.9005 5.79924C28.6246 5.46204 28.7902 4.95249 29.2116 4.84184L31.7352 4.17916C31.8802 4.14109 32.0056 4.04998 32.0866 3.92386L33.4968 1.72846Z" fill="#FFCC40"/>
<path d="M47.2559 1.72846C47.4913 1.3619 48.0271 1.3619 48.2625 1.72846L49.6726 3.92386C49.7536 4.04998 49.879 4.14109 50.024 4.17916L52.5477 4.84184C52.9691 4.95249 53.1347 5.46204 52.8588 5.79924L51.2066 7.81875C51.1117 7.93476 51.0638 8.08219 51.0724 8.23184L51.222 10.8368C51.247 11.2717 50.8135 11.5867 50.4076 11.4285L47.9764 10.4812C47.8367 10.4268 47.6817 10.4268 47.542 10.4812L45.1108 11.4285C44.7048 11.5867 44.2714 11.2717 44.2964 10.8368L44.446 8.23184C44.4546 8.08219 44.4067 7.93476 44.3118 7.81875L42.6596 5.79924C42.3837 5.46204 42.5493 4.95249 42.9706 4.84184L45.4943 4.17916C45.6393 4.14109 45.7647 4.04998 45.8457 3.92386L47.2559 1.72846Z" fill="#FFCC40"/>
<path d="M61.0146 1.72846C61.2501 1.3619 61.7859 1.3619 62.0213 1.72846L63.4314 3.92386C63.5124 4.04998 63.6378 4.14109 63.7828 4.17916L66.3065 4.84184C66.7279 4.95249 66.8934 5.46204 66.6176 5.79924L64.9654 7.81875C64.8705 7.93476 64.8226 8.08219 64.8312 8.23184L64.9808 10.8368C65.0058 11.2717 64.5723 11.5867 64.1664 11.4285L61.7351 10.4812C61.5955 10.4268 61.4405 10.4268 61.3008 10.4812L58.8696 11.4285C58.4636 11.5867 58.0302 11.2717 58.0552 10.8368L58.2048 8.23184C58.2134 8.08219 58.1655 7.93476 58.0706 7.81875L56.4184 5.79924C56.1425 5.46204 56.3081 4.95249 56.7294 4.84184L59.2531 4.17916C59.3981 4.14109 59.5235 4.04998 59.6045 3.92386L61.0146 1.72846Z" fill="#FFCC40"/>
</svg>
