<svg width="69" height="13" viewBox="0 0 69 13" fill="none" xmlns="http://www.w3.org/2000/svg">
<path d="M5.8514 1.72846C6.08685 1.3619 6.62262 1.3619 6.85806 1.72846L8.26817 3.92386C8.34918 4.04998 8.47459 4.14109 8.61957 4.17916L11.1433 4.84184C11.5646 4.95249 11.7302 5.46204 11.4543 5.79924L9.80215 7.81875C9.70723 7.93476 9.65933 8.08219 9.66792 8.23184L9.81754 10.8368C9.84252 11.2717 9.40907 11.5867 9.00313 11.4285L6.57191 10.4812C6.43224 10.4268 6.27723 10.4268 6.13755 10.4812L3.70633 11.4285C3.30039 11.5867 2.86694 11.2717 2.89192 10.8368L3.04154 8.23184C3.05014 8.08219 3.00223 7.93476 2.90732 7.81875L1.25512 5.79924C0.979253 5.46204 1.14482 4.95249 1.5662 4.84184L4.08989 4.17916C4.23487 4.14109 4.36028 4.04998 4.44129 3.92386L5.8514 1.72846Z" fill="#FFCC40"/>
<path d="M19.6102 1.72846C19.8456 1.3619 20.3814 1.3619 20.6168 1.72846L22.0269 3.92386C22.1079 4.04998 22.2333 4.14109 22.3783 4.17916L24.902 4.84184C25.3234 4.95249 25.489 5.46204 25.2131 5.79924L23.5609 7.81875C23.466 7.93476 23.4181 8.08219 23.4267 8.23184L23.5763 10.8368C23.6013 11.2717 23.1678 11.5867 22.7619 11.4285L20.3307 10.4812C20.191 10.4268 20.036 10.4268 19.8963 10.4812L17.4651 11.4285C17.0591 11.5867 16.6257 11.2717 16.6507 10.8368L16.8003 8.23184C16.8089 8.08219 16.761 7.93476 16.6661 7.81875L15.0139 5.79924C14.738 5.46204 14.9036 4.95249 15.325 4.84184L17.8486 4.17916C17.9936 4.14109 18.119 4.04998 18.2 3.92386L19.6102 1.72846Z" fill="#FFCC40"/>
<path d="M33.3693 1.72846C33.6047 1.3619 34.1405 1.3619 34.3759 1.72846L35.786 3.92386C35.867 4.04998 35.9924 4.14109 36.1374 4.17916L38.6611 4.84184C39.0825 4.95249 39.2481 5.46204 38.9722 5.79924L37.32 7.81875C37.2251 7.93476 37.1772 8.08219 37.1858 8.23184L37.3354 10.8368C37.3604 11.2717 36.9269 11.5867 36.521 11.4285L34.0898 10.4812C33.9501 10.4268 33.7951 10.4268 33.6554 10.4812L31.2242 11.4285C30.8182 11.5867 30.3848 11.2717 30.4098 10.8368L30.5594 8.23184C30.568 8.08219 30.5201 7.93476 30.4252 7.81875L28.773 5.79924C28.4971 5.46204 28.6627 4.95249 29.084 4.84184L31.6077 4.17916C31.7527 4.14109 31.8781 4.04998 31.9591 3.92386L33.3693 1.72846Z" fill="#FFCC40"/>
<path d="M47.1282 1.72846C47.3636 1.3619 47.8994 1.3619 48.1349 1.72846L49.545 3.92386C49.626 4.04998 49.7514 4.14109 49.8964 4.17916L52.4201 4.84184C52.8414 4.95249 53.007 5.46204 52.7311 5.79924L51.0789 7.81875C50.984 7.93476 50.9361 8.08219 50.9447 8.23184L51.0943 10.8368C51.1193 11.2717 50.6859 11.5867 50.2799 11.4285L47.8487 10.4812C47.709 10.4268 47.554 10.4268 47.4143 10.4812L44.9831 11.4285C44.5772 11.5867 44.1437 11.2717 44.1687 10.8368L44.3183 8.23184C44.3269 8.08219 44.279 7.93476 44.1841 7.81875L42.5319 5.79924C42.256 5.46204 42.4216 4.95249 42.843 4.84184L45.3667 4.17916C45.5117 4.14109 45.6371 4.04998 45.7181 3.92386L47.1282 1.72846Z" fill="#FFCC40"/>
<path d="M60.8871 1.72846C61.1226 1.3619 61.6583 1.3619 61.8938 1.72846L63.3039 3.92386C63.3849 4.04998 63.5103 4.14109 63.6553 4.17916L66.179 4.84184C66.6004 4.95249 66.7659 5.46204 66.49 5.79924L64.8379 7.81875C64.7429 7.93476 64.695 8.08219 64.7036 8.23184L64.8532 10.8368C64.8782 11.2717 64.4448 11.5867 64.0388 11.4285L61.6076 10.4812C61.4679 10.4268 61.3129 10.4268 61.1733 10.4812L58.742 11.4285C58.3361 11.5867 57.9026 11.2717 57.9276 10.8368L58.0772 8.23184C58.0858 8.08219 58.0379 7.93476 57.943 7.81875L56.2908 5.79924C56.015 5.46204 56.1805 4.95249 56.6019 4.84184L59.1256 4.17916C59.2706 4.14109 59.396 4.04998 59.477 3.92386L60.8871 1.72846Z" fill="#FFCC40"/>
</svg>
