<svg width="69" height="13" viewBox="0 0 69 13" fill="none" xmlns="http://www.w3.org/2000/svg">
<path d="M5.60552 1.72846C5.84097 1.3619 6.37674 1.3619 6.61218 1.72846L8.02229 3.92386C8.1033 4.04998 8.22871 4.14109 8.37369 4.17916L10.8974 4.84184C11.3188 4.95249 11.4843 5.46204 11.2085 5.79924L9.55627 7.81875C9.46135 7.93476 9.41345 8.08219 9.42204 8.23184L9.57166 10.8368C9.59664 11.2717 9.16319 11.5867 8.75725 11.4285L6.32603 10.4812C6.18636 10.4268 6.03135 10.4268 5.89167 10.4812L3.46045 11.4285C3.05451 11.5867 2.62106 11.2717 2.64604 10.8368L2.79566 8.23184C2.80426 8.08219 2.75635 7.93476 2.66144 7.81875L1.00924 5.79924C0.733373 5.46204 0.898937 4.95249 1.32032 4.84184L3.84401 4.17916C3.98899 4.14109 4.1144 4.04998 4.19541 3.92386L5.60552 1.72846Z" fill="#FFCC40"/>
<path d="M19.3644 1.72846C19.5999 1.3619 20.1356 1.3619 20.3711 1.72846L21.7812 3.92386C21.8622 4.04998 21.9876 4.14109 22.1326 4.17916L24.6563 4.84184C25.0777 4.95249 25.2432 5.46204 24.9674 5.79924L23.3152 7.81875C23.2203 7.93476 23.1724 8.08219 23.181 8.23184L23.3306 10.8368C23.3556 11.2717 22.9221 11.5867 22.5162 11.4285L20.0849 10.4812C19.9453 10.4268 19.7903 10.4268 19.6506 10.4812L17.2194 11.4285C16.8134 11.5867 16.38 11.2717 16.405 10.8368L16.5546 8.23184C16.5632 8.08219 16.5153 7.93476 16.4203 7.81875L14.7682 5.79924C14.4923 5.46204 14.6578 4.95249 15.0792 4.84184L17.6029 4.17916C17.7479 4.14109 17.8733 4.04998 17.9543 3.92386L19.3644 1.72846Z" fill="#FFCC40"/>
<path d="M33.1234 1.72846C33.3588 1.3619 33.8946 1.3619 34.1301 1.72846L35.5402 3.92386C35.6212 4.04998 35.7466 4.14109 35.8916 4.17916L38.4153 4.84184C38.8367 4.95249 39.0022 5.46204 38.7263 5.79924L37.0741 7.81875C36.9792 7.93476 36.9313 8.08219 36.9399 8.23184L37.0895 10.8368C37.1145 11.2717 36.6811 11.5867 36.2751 11.4285L33.8439 10.4812C33.7042 10.4268 33.5492 10.4268 33.4096 10.4812L30.9783 11.4285C30.5724 11.5867 30.1389 11.2717 30.1639 10.8368L30.3135 8.23184C30.3221 8.08219 30.2742 7.93476 30.1793 7.81875L28.5271 5.79924C28.2513 5.46204 28.4168 4.95249 28.8382 4.84184L31.3619 4.17916C31.5069 4.14109 31.6323 4.04998 31.7133 3.92386L33.1234 1.72846Z" fill="#FFCC40"/>
<path d="M46.8823 1.72846C47.1178 1.3619 47.6535 1.3619 47.889 1.72846L49.2991 3.92386C49.3801 4.04998 49.5055 4.14109 49.6505 4.17916L52.1742 4.84184C52.5956 4.95249 52.7611 5.46204 52.4853 5.79924L50.8331 7.81875C50.7381 7.93476 50.6902 8.08219 50.6988 8.23184L50.8485 10.8368C50.8734 11.2717 50.44 11.5867 50.034 11.4285L47.6028 10.4812C47.4632 10.4268 47.3081 10.4268 47.1685 10.4812L44.7372 11.4285C44.3313 11.5867 43.8979 11.2717 43.9228 10.8368L44.0725 8.23184C44.0811 8.08219 44.0331 7.93476 43.9382 7.81875L42.286 5.79924C42.0102 5.46204 42.1757 4.95249 42.5971 4.84184L45.1208 4.17916C45.2658 4.14109 45.3912 4.04998 45.4722 3.92386L46.8823 1.72846Z" fill="#FFCC40"/>
<path d="M60.6412 1.72846C60.8767 1.3619 61.4124 1.3619 61.6479 1.72846L63.058 3.92386C63.139 4.04998 63.2644 4.14109 63.4094 4.17916L65.9331 4.84184C66.3545 4.95249 66.52 5.46204 66.2442 5.79924L64.592 7.81875C64.4971 7.93476 64.4492 8.08219 64.4577 8.23184L64.6074 10.8368C64.6323 11.2717 64.1989 11.5867 63.793 11.4285L61.3617 10.4812C61.2221 10.4268 61.0671 10.4268 60.9274 10.4812L58.4962 11.4285C58.0902 11.5867 57.6568 11.2717 57.6817 10.8368L57.8314 8.23184C57.84 8.08219 57.7921 7.93476 57.6971 7.81875L56.0449 5.79924C55.7691 5.46204 55.9346 4.95249 56.356 4.84184L58.8797 4.17916C59.0247 4.14109 59.1501 4.04998 59.2311 3.92386L60.6412 1.72846Z" fill="#FFCC40"/>
</svg>
