<svg width="16" height="19" viewBox="0 0 16 19" fill="none" xmlns="http://www.w3.org/2000/svg">
<path d="M15.2389 15.0357C14.568 13.843 13.4691 12.4921 11.68 11.7241C10.6569 12.4399 9.41384 12.8614 8.07381 12.8614C6.73305 12.8614 5.49003 12.44 4.4668 11.7241C2.67781 12.4921 1.57887 13.843 0.908313 15.0357C0.0183539 16.6176 0.716101 18.856 2.25525 18.856C3.79443 18.856 8.07385 18.856 8.07385 18.856C8.07385 18.856 12.3528 18.856 13.8921 18.856C15.4312 18.856 16.1289 16.6176 15.2389 15.0357Z" fill="#626872"/>
<path d="M8.07432 11.3649C10.7023 11.3649 12.832 9.23439 12.832 6.6068V5.467C12.832 2.83944 10.7023 0.708984 8.07432 0.708984C5.44599 0.708984 3.31592 2.83944 3.31592 5.46703V6.60684C3.31592 9.23439 5.44602 11.3649 8.07432 11.3649Z" fill="#626872"/>
</svg>
