<svg width="16" height="19" viewBox="0 0 16 19" fill="none" xmlns="http://www.w3.org/2000/svg">
<path d="M15.2389 14.8213C14.568 13.6286 13.4691 12.2777 11.68 11.5098C10.6569 12.2256 9.41384 12.6471 8.07381 12.6471C6.73305 12.6471 5.49003 12.2256 4.4668 11.5098C2.67781 12.2777 1.57887 13.6287 0.908313 14.8213C0.0183539 16.4032 0.716101 18.6416 2.25525 18.6416C3.79443 18.6416 8.07385 18.6416 8.07385 18.6416C8.07385 18.6416 12.3528 18.6416 13.8921 18.6416C15.4312 18.6416 16.1289 16.4032 15.2389 14.8213Z" fill="#626872"/>
<path d="M8.07432 11.15C10.7023 11.15 12.832 9.01955 12.832 6.39196V5.25216C12.832 2.6246 10.7023 0.494141 8.07432 0.494141C5.44599 0.494141 3.31592 2.6246 3.31592 5.25219V6.39199C3.31592 9.01955 5.44602 11.15 8.07432 11.15Z" fill="#626872"/>
</svg>
