<svg width="24" height="25" viewBox="0 0 24 25" fill="none" xmlns="http://www.w3.org/2000/svg">
<path d="M12 2.62891C14.717 2.62891 15.056 2.63891 16.122 2.68891C17.187 2.73891 17.912 2.90591 18.55 3.15391C19.21 3.40791 19.766 3.75191 20.322 4.30691C20.8305 4.8068 21.224 5.4115 21.475 6.07891C21.722 6.71591 21.89 7.44191 21.94 8.50691C21.987 9.57291 22 9.91191 22 12.6289C22 15.3459 21.99 15.6849 21.94 16.7509C21.89 17.8159 21.722 18.5409 21.475 19.1789C21.2247 19.8467 20.8311 20.4515 20.322 20.9509C19.822 21.4592 19.2173 21.8527 18.55 22.1039C17.913 22.3509 17.187 22.5189 16.122 22.5689C15.056 22.6159 14.717 22.6289 12 22.6289C9.283 22.6289 8.944 22.6189 7.878 22.5689C6.813 22.5189 6.088 22.3509 5.45 22.1039C4.78233 21.8534 4.17753 21.4599 3.678 20.9509C3.16941 20.4511 2.77593 19.8464 2.525 19.1789C2.277 18.5419 2.11 17.8159 2.06 16.7509C2.013 15.6849 2 15.3459 2 12.6289C2 9.91191 2.01 9.57291 2.06 8.50691C2.11 7.44091 2.277 6.71691 2.525 6.07891C2.77524 5.41109 3.1688 4.80623 3.678 4.30691C4.17767 3.79814 4.78243 3.40464 5.45 3.15391C6.088 2.90591 6.812 2.73891 7.878 2.68891C8.944 2.64191 9.283 2.62891 12 2.62891ZM12 7.62891C10.6739 7.62891 9.40215 8.15569 8.46447 9.09337C7.52678 10.0311 7 11.3028 7 12.6289C7 13.955 7.52678 15.2268 8.46447 16.1644C9.40215 17.1021 10.6739 17.6289 12 17.6289C13.3261 17.6289 14.5979 17.1021 15.5355 16.1644C16.4732 15.2268 17 13.955 17 12.6289C17 11.3028 16.4732 10.0311 15.5355 9.09337C14.5979 8.15569 13.3261 7.62891 12 7.62891ZM18.5 7.37891C18.5 7.04739 18.3683 6.72944 18.1339 6.49502C17.8995 6.2606 17.5815 6.12891 17.25 6.12891C16.9185 6.12891 16.6005 6.2606 16.3661 6.49502C16.1317 6.72944 16 7.04739 16 7.37891C16 7.71043 16.1317 8.02837 16.3661 8.26279C16.6005 8.49721 16.9185 8.62891 17.25 8.62891C17.5815 8.62891 17.8995 8.49721 18.1339 8.26279C18.3683 8.02837 18.5 7.71043 18.5 7.37891ZM12 9.62891C12.7956 9.62891 13.5587 9.94498 14.1213 10.5076C14.6839 11.0702 15 11.8333 15 12.6289C15 13.4246 14.6839 14.1876 14.1213 14.7502C13.5587 15.3128 12.7956 15.6289 12 15.6289C11.2044 15.6289 10.4413 15.3128 9.87868 14.7502C9.31607 14.1876 9 13.4246 9 12.6289C9 11.8333 9.31607 11.0702 9.87868 10.5076C10.4413 9.94498 11.2044 9.62891 12 9.62891Z" fill="white"/>
</svg>
