<svg width="24" height="24" viewBox="0 0 24 24" fill="none" xmlns="http://www.w3.org/2000/svg">
<path d="M18.4655 5.13269C18.4655 5.13269 20.1307 4.48284 19.9918 6.05944C19.9695 6.37516 19.8604 7.07355 19.7164 7.99011C19.5638 8.96063 19.372 10.1754 19.2057 11.4393L18.0963 18.7206C18.0963 18.7206 18.0032 19.7877 17.1705 19.9735C16.3379 20.1586 15.0891 19.3239 14.858 19.1385C14.8195 19.1097 14.6493 18.9979 14.3932 18.83C13.4079 18.1834 11.1501 16.7011 10.2321 15.8915C9.90857 15.6131 9.53944 15.0571 10.2789 14.4081L15.1354 9.77038C15.6905 9.21383 16.2458 7.91536 13.9332 9.49206L7.45764 13.8973C7.45764 13.8973 6.71745 14.3618 5.32971 13.9442L2.32288 13.0165C2.30531 13.0053 1.22887 12.3148 3.10999 11.6249C6.60728 9.97651 10.7129 8.30154 14.6871 6.68054C15.9685 6.15793 17.2363 5.64162 18.4655 5.13269Z" fill="white"/>
</svg>
