<svg width="137" height="24" viewBox="0 0 137 24" fill="none" xmlns="http://www.w3.org/2000/svg">
<path d="M11.2126 1.60291C11.6835 0.869787 12.7551 0.869789 13.226 1.60292L16.0462 5.99371C16.2082 6.24595 16.459 6.42818 16.749 6.50432L21.7964 7.82968C22.6391 8.05098 22.9702 9.07008 22.4185 9.74447L19.1141 13.7835C18.9243 14.0155 18.8285 14.3104 18.8457 14.6097L19.1449 19.8196C19.1949 20.6895 18.328 21.3193 17.5161 21.003L12.6536 19.1085C12.3743 18.9996 12.0643 18.9996 11.7849 19.1085L6.92248 21.003C6.11061 21.3193 5.24371 20.6895 5.29367 19.8196L5.59291 14.6097C5.6101 14.3104 5.5143 14.0155 5.32446 13.7835L2.02007 9.74447C1.46833 9.07008 1.79946 8.05098 2.64222 7.82968L7.68961 6.50432C7.97957 6.42818 8.23039 6.24595 8.39241 5.99371L11.2126 1.60291Z" fill="#FFCC40"/>
<path d="M38.7305 1.60291C39.2014 0.869787 40.2729 0.869789 40.7438 1.60292L43.5641 5.99371C43.7261 6.24595 43.9769 6.42818 44.2669 6.50432L49.3142 7.82968C50.157 8.05098 50.4881 9.07008 49.9364 9.74447L46.632 13.7835C46.4422 14.0155 46.3464 14.3104 46.3636 14.6097L46.6628 19.8196C46.7128 20.6895 45.8459 21.3193 45.034 21.003L40.1715 19.1085C39.8922 18.9996 39.5822 18.9996 39.3028 19.1085L34.4404 21.003C33.6285 21.3193 32.7616 20.6895 32.8116 19.8196L33.1108 14.6097C33.128 14.3104 33.0322 14.0155 32.8423 13.7835L29.5379 9.74447C28.9862 9.07008 29.3173 8.05098 30.1601 7.82968L35.2075 6.50432C35.4975 6.42818 35.7483 6.24595 35.9103 5.99371L38.7305 1.60291Z" fill="#FFCC40"/>
<path d="M66.2484 1.60291C66.7193 0.869787 67.7908 0.869789 68.2617 1.60292L71.0819 5.99371C71.244 6.24595 71.4948 6.42818 71.7847 6.50432L76.8321 7.82968C77.6749 8.05098 78.006 9.07008 77.4543 9.74447L74.1499 13.7835C73.9601 14.0155 73.8642 14.3104 73.8814 14.6097L74.1807 19.8196C74.2306 20.6895 73.3637 21.3193 72.5519 21.003L67.6894 19.1085C67.4101 18.9996 67.1 18.9996 66.8207 19.1085L61.9583 21.003C61.1464 21.3193 60.2795 20.6895 60.3294 19.8196L60.6287 14.6097C60.6459 14.3104 60.5501 14.0155 60.3602 13.7835L57.0558 9.74447C56.5041 9.07008 56.8352 8.05098 57.678 7.82968L62.7254 6.50432C63.0153 6.42818 63.2662 6.24595 63.4282 5.99371L66.2484 1.60291Z" fill="#FFCC40"/>
<path d="M93.7662 1.60291C94.2371 0.869787 95.3087 0.869789 95.7795 1.60292L98.5998 5.99371C98.7618 6.24595 99.0126 6.42818 99.3026 6.50432L104.35 7.82968C105.193 8.05098 105.524 9.07008 104.972 9.74447L101.668 13.7835C101.478 14.0155 101.382 14.3104 101.399 14.6097L101.698 19.8196C101.748 20.6895 100.882 21.3193 100.07 21.003L95.2072 19.1085C94.9279 18.9996 94.6179 18.9996 94.3385 19.1085L89.4761 21.003C88.6642 21.3193 87.7973 20.6895 87.8473 19.8196L88.1465 14.6097C88.1637 14.3104 88.0679 14.0155 87.878 13.7835L84.5737 9.74447C84.0219 9.07008 84.353 8.05098 85.1958 7.82968L90.2432 6.50432C90.5332 6.42818 90.784 6.24595 90.946 5.99371L93.7662 1.60291Z" fill="#FFCC40"/>
<path d="M121.284 1.60291C121.755 0.869787 122.826 0.869789 123.297 1.60292L126.118 5.99371C126.28 6.24595 126.53 6.42818 126.82 6.50432L131.868 7.82968C132.711 8.05098 133.042 9.07008 132.49 9.74447L129.186 13.7835C128.996 14.0155 128.9 14.3104 128.917 14.6097L129.216 19.8196C129.266 20.6895 128.399 21.3193 127.588 21.003L122.725 19.1085C122.446 18.9996 122.136 18.9996 121.856 19.1085L116.994 21.003C116.182 21.3193 115.315 20.6895 115.365 19.8196L115.664 14.6097C115.682 14.3104 115.586 14.0155 115.396 13.7835L112.091 9.74447C111.54 9.07008 111.871 8.05098 112.714 7.82968L117.761 6.50432C118.051 6.42818 118.302 6.24595 118.464 5.99371L121.284 1.60291Z" fill="#FFCC40"/>
</svg>
