<svg width="137" height="24" viewBox="0 0 137 24" fill="none" xmlns="http://www.w3.org/2000/svg">
<path d="M11.703 1.60291C12.1739 0.869787 13.2454 0.869789 13.7163 1.60292L16.5365 5.99371C16.6985 6.24595 16.9494 6.42818 17.2393 6.50432L22.2867 7.82968C23.1295 8.05098 23.4606 9.07008 22.9089 9.74447L19.6045 13.7835C19.4146 14.0155 19.3188 14.3104 19.336 14.6097L19.6353 19.8196C19.6852 20.6895 18.8183 21.3193 18.0065 21.003L13.144 19.1085C12.8647 18.9996 12.5546 18.9996 12.2753 19.1085L7.41284 21.003C6.60096 21.3193 5.73406 20.6895 5.78403 19.8196L6.08326 14.6097C6.10045 14.3104 6.00465 14.0155 5.81482 13.7835L2.51042 9.74447C1.95869 9.07008 2.28982 8.05098 3.13257 7.82968L8.17996 6.50432C8.46993 6.42818 8.72074 6.24595 8.88276 5.99371L11.703 1.60291Z" fill="#FFCC40"/>
<path d="M39.2208 1.60291C39.6917 0.869787 40.7632 0.869789 41.2341 1.60292L44.0544 5.99371C44.2164 6.24595 44.4672 6.42818 44.7572 6.50432L49.8045 7.82968C50.6473 8.05098 50.9784 9.07008 50.4267 9.74447L47.1223 13.7835C46.9325 14.0155 46.8367 14.3104 46.8539 14.6097L47.1531 19.8196C47.2031 20.6895 46.3362 21.3193 45.5243 21.003L40.6618 19.1085C40.3825 18.9996 40.0725 18.9996 39.7931 19.1085L34.9307 21.003C34.1188 21.3193 33.2519 20.6895 33.3018 19.8196L33.6011 14.6097C33.6183 14.3104 33.5225 14.0155 33.3326 13.7835L30.0282 9.74447C29.4765 9.07008 29.8076 8.05098 30.6504 7.82968L35.6978 6.50432C35.9878 6.42818 36.2386 6.24595 36.4006 5.99371L39.2208 1.60291Z" fill="#FFCC40"/>
<path d="M66.7388 1.60291C67.2096 0.869787 68.2812 0.869789 68.7521 1.60292L71.5723 5.99371C71.7343 6.24595 71.9851 6.42818 72.2751 6.50432L77.3225 7.82968C78.1652 8.05098 78.4964 9.07008 77.9446 9.74447L74.6402 13.7835C74.4504 14.0155 74.3546 14.3104 74.3718 14.6097L74.671 19.8196C74.721 20.6895 73.8541 21.3193 73.0422 21.003L68.1798 19.1085C67.9004 18.9996 67.5904 18.9996 67.3111 19.1085L62.4486 21.003C61.6367 21.3193 60.7698 20.6895 60.8198 19.8196L61.119 14.6097C61.1362 14.3104 61.0404 14.0155 60.8506 13.7835L57.5462 9.74447C56.9945 9.07008 57.3256 8.05098 58.1683 7.82968L63.2157 6.50432C63.5057 6.42818 63.7565 6.24595 63.9185 5.99371L66.7388 1.60291Z" fill="#FFCC40"/>
<path d="M94.2566 1.60291C94.7275 0.869787 95.799 0.869789 96.2699 1.60292L99.0901 5.99371C99.2521 6.24595 99.503 6.42818 99.7929 6.50432L104.84 7.82968C105.683 8.05098 106.014 9.07008 105.462 9.74447L102.158 13.7835C101.968 14.0155 101.872 14.3104 101.89 14.6097L102.189 19.8196C102.239 20.6895 101.372 21.3193 100.56 21.003L95.6976 19.1085C95.4182 18.9996 95.1082 18.9996 94.8289 19.1085L89.9664 21.003C89.1546 21.3193 88.2877 20.6895 88.3376 19.8196L88.6369 14.6097C88.654 14.3104 88.5582 14.0155 88.3684 13.7835L85.064 9.74447C84.5123 9.07008 84.8434 8.05098 85.6862 7.82968L90.7336 6.50432C91.0235 6.42818 91.2743 6.24595 91.4364 5.99371L94.2566 1.60291Z" fill="#FFCC40"/>
<path d="M121.774 1.60291C122.245 0.869787 123.317 0.869789 123.788 1.60292L126.608 5.99371C126.77 6.24595 127.021 6.42818 127.311 6.50432L132.358 7.82968C133.201 8.05098 133.532 9.07008 132.98 9.74447L129.676 13.7835C129.486 14.0155 129.39 14.3104 129.407 14.6097L129.707 19.8196C129.757 20.6895 128.89 21.3193 128.078 21.003L123.215 19.1085C122.936 18.9996 122.626 18.9996 122.347 19.1085L117.484 21.003C116.672 21.3193 115.805 20.6895 115.855 19.8196L116.155 14.6097C116.172 14.3104 116.076 14.0155 115.886 13.7835L112.582 9.74447C112.03 9.07008 112.361 8.05098 113.204 7.82968L118.251 6.50432C118.541 6.42818 118.792 6.24595 118.954 5.99371L121.774 1.60291Z" fill="#FFCC40"/>
</svg>
