<svg width="136" height="24" viewBox="0 0 136 24" fill="none" xmlns="http://www.w3.org/2000/svg">
<path d="M10.9577 1.60291C11.4286 0.869787 12.5002 0.869789 12.9711 1.60292L15.7913 5.99371C15.9533 6.24595 16.2041 6.42818 16.4941 6.50432L21.5415 7.82968C22.3842 8.05098 22.7154 9.07008 22.1636 9.74447L18.8592 13.7835C18.6694 14.0155 18.5736 14.3104 18.5908 14.6097L18.89 19.8196C18.94 20.6895 18.0731 21.3193 17.2612 21.003L12.3988 19.1085C12.1194 18.9996 11.8094 18.9996 11.5301 19.1085L6.6676 21.003C5.85572 21.3193 4.98882 20.6895 5.03879 19.8196L5.33802 14.6097C5.35522 14.3104 5.25941 14.0155 5.06958 13.7835L1.76518 9.74447C1.21345 9.07008 1.54458 8.05098 2.38734 7.82968L7.43472 6.50432C7.72469 6.42818 7.97551 6.24595 8.13752 5.99371L10.9577 1.60291Z" fill="#FFCC40"/>
<path d="M38.4756 1.60291C38.9465 0.869787 40.0181 0.869789 40.489 1.60292L43.3092 5.99371C43.4712 6.24595 43.722 6.42818 44.012 6.50432L49.0594 7.82968C49.9021 8.05098 50.2332 9.07008 49.6815 9.74447L46.3771 13.7835C46.1873 14.0155 46.0915 14.3104 46.1087 14.6097L46.4079 19.8196C46.4579 20.6895 45.591 21.3193 44.7791 21.003L39.9166 19.1085C39.6373 18.9996 39.3273 18.9996 39.0479 19.1085L34.1855 21.003C33.3736 21.3193 32.5067 20.6895 32.5567 19.8196L32.8559 14.6097C32.8731 14.3104 32.7773 14.0155 32.5875 13.7835L29.2831 9.74447C28.7313 9.07008 29.0625 8.05098 29.9052 7.82968L34.9526 6.50432C35.2426 6.42818 35.4934 6.24595 35.6554 5.99371L38.4756 1.60291Z" fill="#FFCC40"/>
<path d="M65.9935 1.60291C66.4644 0.869787 67.5359 0.869789 68.0068 1.60292L70.8271 5.99371C70.9891 6.24595 71.2399 6.42818 71.5299 6.50432L76.5772 7.82968C77.42 8.05098 77.7511 9.07008 77.1994 9.74447L73.895 13.7835C73.7052 14.0155 73.6094 14.3104 73.6266 14.6097L73.9258 19.8196C73.9758 20.6895 73.1089 21.3193 72.297 21.003L67.4345 19.1085C67.1552 18.9996 66.8452 18.9996 66.5658 19.1085L61.7034 21.003C60.8915 21.3193 60.0246 20.6895 60.0746 19.8196L60.3738 14.6097C60.391 14.3104 60.2952 14.0155 60.1053 13.7835L56.8009 9.74447C56.2492 9.07008 56.5803 8.05098 57.4231 7.82968L62.4705 6.50432C62.7605 6.42818 63.0113 6.24595 63.1733 5.99371L65.9935 1.60291Z" fill="#FFCC40"/>
<path d="M93.5113 1.60291C93.9822 0.869787 95.0538 0.869789 95.5247 1.60292L98.3449 5.99371C98.5069 6.24595 98.7577 6.42818 99.0477 6.50432L104.095 7.82968C104.938 8.05098 105.269 9.07008 104.717 9.74447L101.413 13.7835C101.223 14.0155 101.127 14.3104 101.144 14.6097L101.444 19.8196C101.494 20.6895 100.627 21.3193 99.8148 21.003L94.9524 19.1085C94.673 18.9996 94.363 18.9996 94.0836 19.1085L89.2212 21.003C88.4093 21.3193 87.5424 20.6895 87.5924 19.8196L87.8916 14.6097C87.9088 14.3104 87.813 14.0155 87.6232 13.7835L84.3188 9.74447C83.767 9.07008 84.0982 8.05098 84.9409 7.82968L89.9883 6.50432C90.2783 6.42818 90.5291 6.24595 90.6911 5.99371L93.5113 1.60291Z" fill="#FFCC40"/>
<path d="M121.029 1.60291C121.5 0.869787 122.572 0.869789 123.042 1.60292L125.863 5.99371C126.025 6.24595 126.276 6.42818 126.566 6.50432L131.613 7.82968C132.456 8.05098 132.787 9.07008 132.235 9.74447L128.931 13.7835C128.741 14.0155 128.645 14.3104 128.662 14.6097L128.961 19.8196C129.011 20.6895 128.145 21.3193 127.333 21.003L122.47 19.1085C122.191 18.9996 121.881 18.9996 121.601 19.1085L116.739 21.003C115.927 21.3193 115.06 20.6895 115.11 19.8196L115.409 14.6097C115.427 14.3104 115.331 14.0155 115.141 13.7835L111.837 9.74447C111.285 9.07008 111.616 8.05098 112.459 7.82968L117.506 6.50432C117.796 6.42818 118.047 6.24595 118.209 5.99371L121.029 1.60291Z" fill="#FFCC40"/>
</svg>
