<svg width="136" height="24" viewBox="0 0 136 24" fill="none" xmlns="http://www.w3.org/2000/svg">
<path d="M10.9576 1.60291C11.4285 0.869787 12.5001 0.869789 12.9709 1.60292L15.7912 5.99371C15.9532 6.24595 16.204 6.42818 16.494 6.50432L21.5414 7.82968C22.3841 8.05098 22.7152 9.07008 22.1635 9.74447L18.8591 13.7835C18.6693 14.0155 18.5735 14.3104 18.5907 14.6097L18.8899 19.8196C18.9399 20.6895 18.073 21.3193 17.2611 21.003L12.3986 19.1085C12.1193 18.9996 11.8093 18.9996 11.5299 19.1085L6.66748 21.003C5.8556 21.3193 4.9887 20.6895 5.03867 19.8196L5.3379 14.6097C5.35509 14.3104 5.25929 14.0155 5.06946 13.7835L1.76506 9.74447C1.21333 9.07008 1.54446 8.05098 2.38721 7.82968L7.4346 6.50432C7.72457 6.42818 7.97538 6.24595 8.1374 5.99371L10.9576 1.60291Z" fill="#FFCC40"/>
<path d="M38.4754 1.60291C38.9463 0.869787 40.0179 0.869789 40.4888 1.60292L43.309 5.99371C43.471 6.24595 43.7218 6.42818 44.0118 6.50432L49.0592 7.82968C49.9019 8.05098 50.2331 9.07008 49.6813 9.74447L46.3769 13.7835C46.1871 14.0155 46.0913 14.3104 46.1085 14.6097L46.4077 19.8196C46.4577 20.6895 45.5908 21.3193 44.7789 21.003L39.9165 19.1085C39.6371 18.9996 39.3271 18.9996 39.0478 19.1085L34.1853 21.003C33.3734 21.3193 32.5065 20.6895 32.5565 19.8196L32.8557 14.6097C32.8729 14.3104 32.7771 14.0155 32.5873 13.7835L29.2829 9.74447C28.7312 9.07008 29.0623 8.05098 29.905 7.82968L34.9524 6.50432C35.2424 6.42818 35.4932 6.24595 35.6552 5.99371L38.4754 1.60291Z" fill="#FFCC40"/>
<path d="M65.9934 1.60291C66.4643 0.869787 67.5358 0.869789 68.0067 1.60292L70.8269 5.99371C70.989 6.24595 71.2398 6.42818 71.5297 6.50432L76.5771 7.82968C77.4199 8.05098 77.751 9.07008 77.1993 9.74447L73.8949 13.7835C73.705 14.0155 73.6092 14.3104 73.6264 14.6097L73.9257 19.8196C73.9756 20.6895 73.1087 21.3193 72.2969 21.003L67.4344 19.1085C67.1551 18.9996 66.845 18.9996 66.5657 19.1085L61.7032 21.003C60.8914 21.3193 60.0245 20.6895 60.0744 19.8196L60.3737 14.6097C60.3909 14.3104 60.2951 14.0155 60.1052 13.7835L56.8008 9.74447C56.2491 9.07008 56.5802 8.05098 57.423 7.82968L62.4704 6.50432C62.7603 6.42818 63.0111 6.24595 63.1732 5.99371L65.9934 1.60291Z" fill="#FFCC40"/>
<path d="M93.5112 1.60291C93.9821 0.869787 95.0536 0.869789 95.5245 1.60292L98.3448 5.99371C98.5068 6.24595 98.7576 6.42818 99.0476 6.50432L104.095 7.82968C104.938 8.05098 105.269 9.07008 104.717 9.74447L101.413 13.7835C101.223 14.0155 101.127 14.3104 101.144 14.6097L101.443 19.8196C101.493 20.6895 100.627 21.3193 99.8147 21.003L94.9522 19.1085C94.6729 18.9996 94.3629 18.9996 94.0835 19.1085L89.2211 21.003C88.4092 21.3193 87.5423 20.6895 87.5923 19.8196L87.8915 14.6097C87.9087 14.3104 87.8129 14.0155 87.623 13.7835L84.3186 9.74447C83.7669 9.07008 84.098 8.05098 84.9408 7.82968L89.9882 6.50432C90.2782 6.42818 90.529 6.24595 90.691 5.99371L93.5112 1.60291Z" fill="#FFCC40"/>
<path d="M121.029 1.60291C121.5 0.869787 122.571 0.869789 123.042 1.60292L125.863 5.99371C126.025 6.24595 126.275 6.42818 126.565 6.50432L131.613 7.82968C132.456 8.05098 132.787 9.07008 132.235 9.74447L128.931 13.7835C128.741 14.0155 128.645 14.3104 128.662 14.6097L128.961 19.8196C129.011 20.6895 128.144 21.3193 127.333 21.003L122.47 19.1085C122.191 18.9996 121.881 18.9996 121.601 19.1085L116.739 21.003C115.927 21.3193 115.06 20.6895 115.11 19.8196L115.409 14.6097C115.427 14.3104 115.331 14.0155 115.141 13.7835L111.836 9.74447C111.285 9.07008 111.616 8.05098 112.459 7.82968L117.506 6.50432C117.796 6.42818 118.047 6.24595 118.209 5.99371L121.029 1.60291Z" fill="#FFCC40"/>
</svg>
