<svg width="15" height="17" viewBox="0 0 15 17" fill="none" xmlns="http://www.w3.org/2000/svg">
<path d="M14.2123 13.421C13.5838 12.3038 12.5544 11.0383 10.8784 10.3188C9.91993 10.9894 8.7555 11.3842 7.50019 11.3842C6.24418 11.3842 5.07975 10.9895 4.12121 10.3188C2.44531 11.0383 1.41585 12.3038 0.787678 13.421C-0.0460192 14.903 0.607618 16.9998 2.04946 16.9998C3.49134 16.9998 7.50022 16.9998 7.50022 16.9998C7.50022 16.9998 11.5087 16.9998 12.9506 16.9998C14.3924 16.9998 15.0461 14.903 14.2123 13.421Z" fill="#626872"/>
<path d="M7.50019 9.98222C9.962 9.98222 11.9571 7.98645 11.9571 5.52497V4.45722C11.9571 1.99577 9.962 0 7.50019 0C5.03801 0 3.0426 1.99577 3.0426 4.45725V5.525C3.0426 7.98645 5.03804 9.98222 7.50019 9.98222Z" fill="#626872"/>
</svg>
