<svg width="15" height="17" viewBox="0 0 15 17" fill="none" xmlns="http://www.w3.org/2000/svg">
<path d="M14.2124 13.421C13.5838 12.3038 12.5544 11.0383 10.8785 10.3188C9.91996 10.9894 8.75553 11.3842 7.50022 11.3842C6.24421 11.3842 5.07978 10.9895 4.12124 10.3188C2.44534 11.0383 1.41588 12.3038 0.787709 13.421C-0.0459886 14.903 0.607648 16.9998 2.04949 16.9998C3.49137 16.9998 7.50025 16.9998 7.50025 16.9998C7.50025 16.9998 11.5087 16.9998 12.9506 16.9998C14.3925 16.9998 15.0461 14.903 14.2124 13.421Z" fill="#626872"/>
<path d="M7.50022 9.98222C9.96203 9.98222 11.9571 7.98645 11.9571 5.52497V4.45722C11.9571 1.99577 9.96203 0 7.50022 0C5.03804 0 3.04263 1.99577 3.04263 4.45725V5.525C3.04263 7.98645 5.03807 9.98222 7.50022 9.98222Z" fill="#626872"/>
</svg>
