<svg width="24" height="25" viewBox="0 0 24 25" fill="none" xmlns="http://www.w3.org/2000/svg">
<path d="M18.465 5.18737C18.465 5.18737 20.1302 4.53753 19.9913 6.11413C19.969 6.42985 19.8599 7.12824 19.7159 8.0448C19.5633 9.01531 19.3715 10.2301 19.2052 11.494L18.0958 18.7753C18.0958 18.7753 18.0027 19.8424 17.17 20.0282C16.3374 20.2133 15.0886 19.3786 14.8575 19.1932C14.819 19.1644 14.6488 19.0526 14.3927 18.8846C13.4074 18.2381 11.1496 16.7558 10.2316 15.9462C9.90808 15.6678 9.53895 15.1118 10.2784 14.4628L15.1349 9.82507C15.69 9.26852 16.2453 7.97005 13.9327 9.54675L7.45715 13.952C7.45715 13.952 6.71696 14.4164 5.32922 13.9989L2.32239 13.0712C2.30482 13.06 1.22838 12.3694 3.1095 11.6796C6.60679 10.0312 10.7124 8.35623 14.6866 6.73523C15.968 6.21262 17.2358 5.69631 18.465 5.18737Z" fill="white"/>
</svg>
