<svg width="24" height="25" viewBox="0 0 24 25" fill="none" xmlns="http://www.w3.org/2000/svg">
<path d="M12 2.05469C14.717 2.05469 15.056 2.06469 16.122 2.11469C17.187 2.16469 17.912 2.33169 18.55 2.57969C19.21 2.83369 19.766 3.17769 20.322 3.73269C20.8305 4.23258 21.224 4.83728 21.475 5.50469C21.722 6.14169 21.89 6.86769 21.94 7.93269C21.987 8.99869 22 9.33769 22 12.0547C22 14.7717 21.99 15.1107 21.94 16.1767C21.89 17.2417 21.722 17.9667 21.475 18.6047C21.2247 19.2725 20.8311 19.8773 20.322 20.3767C19.822 20.885 19.2173 21.2784 18.55 21.5297C17.913 21.7767 17.187 21.9447 16.122 21.9947C15.056 22.0417 14.717 22.0547 12 22.0547C9.283 22.0547 8.944 22.0447 7.878 21.9947C6.813 21.9447 6.088 21.7767 5.45 21.5297C4.78233 21.2792 4.17753 20.8856 3.678 20.3767C3.16941 19.8769 2.77593 19.2722 2.525 18.6047C2.277 17.9677 2.11 17.2417 2.06 16.1767C2.013 15.1107 2 14.7717 2 12.0547C2 9.33769 2.01 8.99869 2.06 7.93269C2.11 6.86669 2.277 6.14269 2.525 5.50469C2.77524 4.83687 3.1688 4.23201 3.678 3.73269C4.17767 3.22392 4.78243 2.83042 5.45 2.57969C6.088 2.33169 6.812 2.16469 7.878 2.11469C8.944 2.06769 9.283 2.05469 12 2.05469ZM12 7.05469C10.6739 7.05469 9.40215 7.58147 8.46447 8.51915C7.52678 9.45684 7 10.7286 7 12.0547C7 13.3808 7.52678 14.6525 8.46447 15.5902C9.40215 16.5279 10.6739 17.0547 12 17.0547C13.3261 17.0547 14.5979 16.5279 15.5355 15.5902C16.4732 14.6525 17 13.3808 17 12.0547C17 10.7286 16.4732 9.45684 15.5355 8.51915C14.5979 7.58147 13.3261 7.05469 12 7.05469ZM18.5 6.80469C18.5 6.47317 18.3683 6.15522 18.1339 5.9208C17.8995 5.68638 17.5815 5.55469 17.25 5.55469C16.9185 5.55469 16.6005 5.68638 16.3661 5.9208C16.1317 6.15522 16 6.47317 16 6.80469C16 7.13621 16.1317 7.45415 16.3661 7.68857C16.6005 7.92299 16.9185 8.05469 17.25 8.05469C17.5815 8.05469 17.8995 7.92299 18.1339 7.68857C18.3683 7.45415 18.5 7.13621 18.5 6.80469ZM12 9.05469C12.7956 9.05469 13.5587 9.37076 14.1213 9.93337C14.6839 10.496 15 11.259 15 12.0547C15 12.8503 14.6839 13.6134 14.1213 14.176C13.5587 14.7386 12.7956 15.0547 12 15.0547C11.2044 15.0547 10.4413 14.7386 9.87868 14.176C9.31607 13.6134 9 12.8503 9 12.0547C9 11.259 9.31607 10.496 9.87868 9.93337C10.4413 9.37076 11.2044 9.05469 12 9.05469Z" fill="white"/>
</svg>
