<svg width="24" height="25" viewBox="0 0 24 25" fill="none" xmlns="http://www.w3.org/2000/svg">
<path d="M18.4655 5.62292C18.4655 5.62292 20.1307 4.97307 19.9918 6.54968C19.9695 6.8654 19.8604 7.56378 19.7164 8.48034C19.5638 9.45086 19.372 10.6657 19.2057 11.9296L18.0963 19.2108C18.0963 19.2108 18.0032 20.278 17.1705 20.4637C16.3379 20.6489 15.0891 19.8142 14.858 19.6288C14.8195 19.6 14.6493 19.4882 14.3932 19.3202C13.4079 18.6736 11.1501 17.1914 10.2321 16.3817C9.90857 16.1033 9.53944 15.5473 10.2789 14.8983L15.1354 10.2606C15.6905 9.70406 16.2458 8.4056 13.9332 9.9823L7.45764 14.3876C7.45764 14.3876 6.71745 14.852 5.32971 14.4344L2.32288 13.5067C2.30531 13.4956 1.22887 12.805 3.10999 12.1151C6.60728 10.4667 10.7129 8.79178 14.6871 7.17077C15.9685 6.64817 17.2363 6.13185 18.4655 5.62292Z" fill="white"/>
</svg>
