<svg width="16" height="19" viewBox="0 0 16 19" fill="none" xmlns="http://www.w3.org/2000/svg">
<path d="M15.2387 14.898C14.5677 13.7053 13.4688 12.3544 11.6798 11.5864C10.6566 12.3022 9.4136 12.7237 8.07357 12.7237C6.7328 12.7237 5.48979 12.3023 4.46656 11.5864C2.67757 12.3544 1.57863 13.7053 0.908069 14.898C0.0181098 16.4799 0.715857 18.7183 2.25501 18.7183C3.79419 18.7183 8.07361 18.7183 8.07361 18.7183C8.07361 18.7183 12.3526 18.7183 13.8918 18.7183C15.4309 18.7183 16.1287 16.4799 15.2387 14.898Z" fill="#626872"/>
<path d="M8.07432 11.2272C10.7023 11.2272 12.832 9.0967 12.832 6.46911V5.3293C12.832 2.70175 10.7023 0.571289 8.07432 0.571289C5.44599 0.571289 3.31592 2.70175 3.31592 5.32934V6.46914C3.31592 9.0967 5.44602 11.2272 8.07432 11.2272Z" fill="#626872"/>
</svg>
