<svg width="16" height="19" viewBox="0 0 16 19" fill="none" xmlns="http://www.w3.org/2000/svg">
<path d="M15.2387 14.6831C14.5677 13.4904 13.4688 12.1395 11.6798 11.3716C10.6566 12.0874 9.4136 12.5089 8.07357 12.5089C6.7328 12.5089 5.48979 12.0874 4.46656 11.3716C2.67757 12.1395 1.57863 13.4905 0.908069 14.6831C0.0181098 16.2651 0.715857 18.5034 2.25501 18.5034C3.79419 18.5034 8.07361 18.5034 8.07361 18.5034C8.07361 18.5034 12.3526 18.5034 13.8918 18.5034C15.4309 18.5034 16.1287 16.2651 15.2387 14.6831Z" fill="#626872"/>
<path d="M8.07432 11.0123C10.7023 11.0123 12.832 8.88186 12.832 6.25426V5.11446C12.832 2.4869 10.7023 0.356445 8.07432 0.356445C5.44599 0.356445 3.31592 2.4869 3.31592 5.1145V6.2543C3.31592 8.88186 5.44602 11.0123 8.07432 11.0123Z" fill="#626872"/>
</svg>
