<svg width="16" height="19" viewBox="0 0 16 19" fill="none" xmlns="http://www.w3.org/2000/svg">
<path d="M15.2387 14.3947C14.5677 13.202 13.4688 11.8511 11.6798 11.0831C10.6566 11.799 9.4136 12.2204 8.07357 12.2204C6.7328 12.2204 5.48979 11.799 4.46656 11.0831C2.67757 11.8511 1.57863 13.202 0.908069 14.3947C0.0181098 15.9766 0.715857 18.215 2.25501 18.215C3.79419 18.215 8.07361 18.215 8.07361 18.215C8.07361 18.215 12.3526 18.215 13.8918 18.215C15.4309 18.215 16.1287 15.9766 15.2387 14.3947Z" fill="#626872"/>
<path d="M8.07432 10.7238C10.7023 10.7238 12.832 8.59334 12.832 5.96575V4.82595C12.832 2.19839 10.7023 0.0679321 8.07432 0.0679321C5.44599 0.0679321 3.31592 2.19839 3.31592 4.82598V5.96579C3.31592 8.59334 5.44602 10.7238 8.07432 10.7238Z" fill="#626872"/>
</svg>
