<svg width="16" height="19" viewBox="0 0 16 19" fill="none" xmlns="http://www.w3.org/2000/svg">
<path d="M15.2387 14.468C14.5677 13.2754 13.4688 11.9245 11.6798 11.1565C10.6566 11.8723 9.4136 12.2938 8.07357 12.2938C6.7328 12.2938 5.48979 11.8724 4.46656 11.1565C2.67757 11.9245 1.57863 13.2754 0.908069 14.468C0.0181098 16.05 0.715857 18.2883 2.25501 18.2883C3.79419 18.2883 8.07361 18.2883 8.07361 18.2883C8.07361 18.2883 12.3526 18.2883 13.8918 18.2883C15.4309 18.2883 16.1287 16.05 15.2387 14.468Z" fill="#626872"/>
<path d="M8.07432 10.7972C10.7023 10.7972 12.832 8.66677 12.832 6.03918V4.89937C12.832 2.27181 10.7023 0.141357 8.07432 0.141357C5.44599 0.141357 3.31592 2.27182 3.31592 4.89941V6.03921C3.31592 8.66677 5.44602 10.7972 8.07432 10.7972Z" fill="#626872"/>
</svg>
