<svg width="16" height="19" viewBox="0 0 16 19" fill="none" xmlns="http://www.w3.org/2000/svg">
<path d="M15.2387 14.6093C14.5677 13.4167 13.4688 12.0658 11.6798 11.2978C10.6566 12.0136 9.4136 12.4351 8.07357 12.4351C6.7328 12.4351 5.48979 12.0136 4.46656 11.2978C2.67757 12.0658 1.57863 13.4167 0.908069 14.6093C0.0181098 16.1913 0.715857 18.4296 2.25501 18.4296C3.79419 18.4296 8.07361 18.4296 8.07361 18.4296C8.07361 18.4296 12.3526 18.4296 13.8918 18.4296C15.4309 18.4296 16.1287 16.1913 15.2387 14.6093Z" fill="#626872"/>
<path d="M8.07432 10.9385C10.7023 10.9385 12.832 8.808 12.832 6.18041V5.04061C12.832 2.41305 10.7023 0.282593 8.07432 0.282593C5.44599 0.282593 3.31592 2.41305 3.31592 5.04064V6.18045C3.31592 8.808 5.44602 10.9385 8.07432 10.9385Z" fill="#626872"/>
</svg>
