<svg width="16" height="19" viewBox="0 0 16 19" fill="none" xmlns="http://www.w3.org/2000/svg">
<path d="M15.2387 14.8239C14.5677 13.6312 13.4688 12.2803 11.6798 11.5123C10.6566 12.2282 9.4136 12.6496 8.07357 12.6496C6.7328 12.6496 5.48979 12.2282 4.46656 11.5123C2.67757 12.2803 1.57863 13.6312 0.908069 14.8239C0.0181098 16.4058 0.715857 18.6442 2.25501 18.6442C3.79419 18.6442 8.07361 18.6442 8.07361 18.6442C8.07361 18.6442 12.3526 18.6442 13.8918 18.6442C15.4309 18.6442 16.1287 16.4058 15.2387 14.8239Z" fill="#626872"/>
<path d="M8.07432 11.1529C10.7023 11.1529 12.832 9.02248 12.832 6.39489V5.25508C12.832 2.62753 10.7023 0.49707 8.07432 0.49707C5.44599 0.49707 3.31592 2.62753 3.31592 5.25512V6.39492C3.31592 9.02248 5.44602 11.1529 8.07432 11.1529Z" fill="#626872"/>
</svg>
