<svg width="16" height="19" viewBox="0 0 16 19" fill="none" xmlns="http://www.w3.org/2000/svg">
<path d="M15.2387 15.0385C14.5677 13.8458 13.4688 12.4949 11.6798 11.7269C10.6566 12.4428 9.4136 12.8642 8.07357 12.8642C6.7328 12.8642 5.48979 12.4428 4.46656 11.7269C2.67757 12.4949 1.57863 13.8458 0.908069 15.0385C0.0181098 16.6204 0.715857 18.8588 2.25501 18.8588C3.79419 18.8588 8.07361 18.8588 8.07361 18.8588C8.07361 18.8588 12.3526 18.8588 13.8918 18.8588C15.4309 18.8588 16.1287 16.6204 15.2387 15.0385Z" fill="#626872"/>
<path d="M8.07432 11.3675C10.7023 11.3675 12.832 9.23708 12.832 6.60949V5.46968C12.832 2.84213 10.7023 0.71167 8.07432 0.71167C5.44599 0.71167 3.31592 2.84213 3.31592 5.46972V6.60952C3.31592 9.23708 5.44602 11.3675 8.07432 11.3675Z" fill="#626872"/>
</svg>
