<svg width="16" height="20" viewBox="0 0 16 20" fill="none" xmlns="http://www.w3.org/2000/svg">
<path d="M15.2387 15.2534C14.5677 14.0608 13.4688 12.7099 11.6798 11.9419C10.6566 12.6577 9.4136 13.0792 8.07357 13.0792C6.7328 13.0792 5.48979 12.6578 4.46656 11.9419C2.67757 12.7099 1.57863 14.0608 0.908069 15.2534C0.0181098 16.8354 0.715857 19.0737 2.25501 19.0737C3.79419 19.0737 8.07361 19.0737 8.07361 19.0737C8.07361 19.0737 12.3526 19.0737 13.8918 19.0737C15.4309 19.0737 16.1287 16.8354 15.2387 15.2534Z" fill="#626872"/>
<path d="M8.07432 11.5826C10.7023 11.5826 12.832 9.45217 12.832 6.82458V5.68477C12.832 3.05722 10.7023 0.926758 8.07432 0.926758C5.44599 0.926758 3.31592 3.05722 3.31592 5.68481V6.82461C3.31592 9.45217 5.44602 11.5826 8.07432 11.5826Z" fill="#626872"/>
</svg>
