<svg width="24" height="25" viewBox="0 0 24 25" fill="none" xmlns="http://www.w3.org/2000/svg">
<path d="M12 2.49023C14.717 2.49023 15.056 2.50023 16.122 2.55023C17.187 2.60023 17.912 2.76723 18.55 3.01523C19.21 3.26923 19.766 3.61323 20.322 4.16823C20.8305 4.66813 21.224 5.27282 21.475 5.94023C21.722 6.57723 21.89 7.30323 21.94 8.36823C21.987 9.43423 22 9.77323 22 12.4902C22 15.2072 21.99 15.5462 21.94 16.6122C21.89 17.6772 21.722 18.4022 21.475 19.0402C21.2247 19.708 20.8311 20.3129 20.322 20.8122C19.822 21.3206 19.2173 21.714 18.55 21.9652C17.913 22.2122 17.187 22.3802 16.122 22.4302C15.056 22.4772 14.717 22.4902 12 22.4902C9.283 22.4902 8.944 22.4802 7.878 22.4302C6.813 22.3802 6.088 22.2122 5.45 21.9652C4.78233 21.7147 4.17753 21.3212 3.678 20.8122C3.16941 20.3124 2.77593 19.7077 2.525 19.0402C2.277 18.4032 2.11 17.6772 2.06 16.6122C2.013 15.5462 2 15.2072 2 12.4902C2 9.77323 2.01 9.43423 2.06 8.36823C2.11 7.30223 2.277 6.57823 2.525 5.94023C2.77524 5.27241 3.1688 4.66756 3.678 4.16823C4.17767 3.65947 4.78243 3.26596 5.45 3.01523C6.088 2.76723 6.812 2.60023 7.878 2.55023C8.944 2.50323 9.283 2.49023 12 2.49023ZM12 7.49023C10.6739 7.49023 9.40215 8.01702 8.46447 8.9547C7.52678 9.89238 7 11.1642 7 12.4902C7 13.8163 7.52678 15.0881 8.46447 16.0258C9.40215 16.9635 10.6739 17.4902 12 17.4902C13.3261 17.4902 14.5979 16.9635 15.5355 16.0258C16.4732 15.0881 17 13.8163 17 12.4902C17 11.1642 16.4732 9.89238 15.5355 8.9547C14.5979 8.01702 13.3261 7.49023 12 7.49023ZM18.5 7.24023C18.5 6.90871 18.3683 6.59077 18.1339 6.35635C17.8995 6.12193 17.5815 5.99023 17.25 5.99023C16.9185 5.99023 16.6005 6.12193 16.3661 6.35635C16.1317 6.59077 16 6.90871 16 7.24023C16 7.57175 16.1317 7.8897 16.3661 8.12412C16.6005 8.35854 16.9185 8.49023 17.25 8.49023C17.5815 8.49023 17.8995 8.35854 18.1339 8.12412C18.3683 7.8897 18.5 7.57175 18.5 7.24023ZM12 9.49023C12.7956 9.49023 13.5587 9.8063 14.1213 10.3689C14.6839 10.9315 15 11.6946 15 12.4902C15 13.2859 14.6839 14.0489 14.1213 14.6116C13.5587 15.1742 12.7956 15.4902 12 15.4902C11.2044 15.4902 10.4413 15.1742 9.87868 14.6116C9.31607 14.0489 9 13.2859 9 12.4902C9 11.6946 9.31607 10.9315 9.87868 10.3689C10.4413 9.8063 11.2044 9.49023 12 9.49023Z" fill="white"/>
</svg>
