<svg width="15" height="17" viewBox="0 0 15 17" fill="none" xmlns="http://www.w3.org/2000/svg">
<path d="M14.2122 13.421C13.5837 12.3038 12.5542 11.0383 10.8783 10.3188C9.91981 10.9894 8.75538 11.3842 7.50007 11.3842C6.24406 11.3842 5.07962 10.9895 4.12108 10.3188C2.44519 11.0383 1.41573 12.3038 0.787556 13.421C-0.0461412 14.903 0.607496 16.9998 2.04934 16.9998C3.49122 16.9998 7.5001 16.9998 7.5001 16.9998C7.5001 16.9998 11.5086 16.9998 12.9505 16.9998C14.3923 16.9998 15.0459 14.903 14.2122 13.421Z" fill="#626872"/>
<path d="M7.50007 9.98222C9.96188 9.98222 11.957 7.98645 11.957 5.52497V4.45722C11.957 1.99577 9.96188 0 7.50007 0C5.03789 0 3.04248 1.99577 3.04248 4.45725V5.525C3.04248 7.98645 5.03792 9.98222 7.50007 9.98222Z" fill="#626872"/>
</svg>
