<svg width="15" height="17" viewBox="0 0 15 17" fill="none" xmlns="http://www.w3.org/2000/svg">
<path d="M14.2122 13.4212C13.5837 12.3039 12.5542 11.0384 10.8783 10.319C9.91981 10.9895 8.75538 11.3844 7.50007 11.3844C6.24406 11.3844 5.07962 10.9896 4.12108 10.319C2.44519 11.0384 1.41573 12.3039 0.787556 13.4212C-0.0461412 14.9031 0.607496 16.9999 2.04934 16.9999C3.49122 16.9999 7.5001 16.9999 7.5001 16.9999C7.5001 16.9999 11.5086 16.9999 12.9505 16.9999C14.3923 16.9999 15.0459 14.9031 14.2122 13.4212Z" fill="#626872"/>
<path d="M7.50007 9.98222C9.96188 9.98222 11.957 7.98645 11.957 5.52497V4.45722C11.957 1.99577 9.96188 0 7.50007 0C5.03789 0 3.04248 1.99577 3.04248 4.45725V5.525C3.04248 7.98645 5.03792 9.98222 7.50007 9.98222Z" fill="#626872"/>
</svg>
